# xmcd
# Track frame offsets:
# 182
# 13357
# 27460
# 40402
# 54870
# 67452
# 83415
# 98115
# 108557
# 120867
# 133840
# 148407
#
# Disc length: 2218 seconds
# Revision: 0
# Processed by: cddbd v1.5.2PL0 Copyright (c) Steve Scherf et al.
# Submitted via: VisiTrax 2.10.3.257 - For more info visit www.synapsa.com
#
DISCID=ad08a80c
DTITLE=Adam harvey - Second time Around
DYEAR=1900
DGENRE=
TTITLE0=He Lives My Dream
TTITLE1=Been There Done That
TTITLE2=Tequila Sunrise
TTITLE3=I Think I'll Have Another Bourbon
TTITLE4=The Fightin' Side Of Me
TTITLE5=Sad Songs and Waltz's
TTITLE6=Big Bad John
TTITLE7=Hello Darlin
TTITLE8=Trashy Women
TTITLE9=Is It Raining At Your Place
TTITLE10=I'd Be Worse Off
TTITLE11=I Believe In you
EXTD=
EXTT0=
EXTT1=
EXTT2=
EXTT3=
EXTT4=
EXTT5=
EXTT6=
EXTT7=
EXTT8=
EXTT9=
EXTT10=
EXTT11=
PLAYORDER=
